<svg id="visual" viewBox="0 0 900 600" width="900" height="600" xmlns="http://www.w3.org/2000/svg" xmlns:xlink="http://www.w3.org/1999/xlink" version="1.1"><g stroke-width="1" stroke-linejoin="bevel"><path d="M389 295L382 231L325 327Z" fill="#00868d" stroke="#00868d"></path><path d="M382 231L268 178L325 327Z" fill="#00868d" stroke="#00868d"></path><path d="M325 327L382 378L389 295Z" fill="#005e8f" stroke="#005e8f"></path><path d="M207 267L278 376L325 327Z" fill="#004f8d" stroke="#004f8d"></path><path d="M325 327L278 376L382 378Z" fill="#4ea24c" stroke="#4ea24c"></path><path d="M268 178L207 267L325 327Z" fill="#006c8f" stroke="#006c8f"></path><path d="M268 178L236 176L207 267Z" fill="#80a629" stroke="#80a629"></path><path d="M207 267L236 378L278 376Z" fill="#0f2c7b" stroke="#0f2c7b"></path><path d="M508 495L508 404L382 378Z" fill="#005e8f" stroke="#005e8f"></path><path d="M392 95L275 112L268 178Z" fill="#80a629" stroke="#80a629"></path><path d="M268 178L229 117L236 176Z" fill="#003f87" stroke="#003f87"></path><path d="M494 168L392 95L382 231Z" fill="#003f87" stroke="#003f87"></path><path d="M382 231L392 95L268 178Z" fill="#006c8f" stroke="#006c8f"></path><path d="M263 0L229 117L275 112Z" fill="#009b69" stroke="#009b69"></path><path d="M275 112L229 117L268 178Z" fill="#00868d" stroke="#00868d"></path><path d="M236 176L107 210L207 267Z" fill="#00798e" stroke="#00798e"></path><path d="M536 337L494 168L389 295Z" fill="#009280" stroke="#009280"></path><path d="M389 295L494 168L382 231Z" fill="#4ea24c" stroke="#4ea24c"></path><path d="M382 378L536 337L389 295Z" fill="#80a629" stroke="#80a629"></path><path d="M382 378L508 404L536 337Z" fill="#009b69" stroke="#009b69"></path><path d="M263 477L382 378L278 376Z" fill="#00798e" stroke="#00798e"></path><path d="M236 378L263 477L278 376Z" fill="#004f8d" stroke="#004f8d"></path><path d="M229 117L107 210L236 176Z" fill="#009280" stroke="#009280"></path><path d="M207 267L84 311L236 378Z" fill="#4ea24c" stroke="#4ea24c"></path><path d="M236 378L175 468L263 477Z" fill="#00798e" stroke="#00798e"></path><path d="M593 162L512 96L494 168Z" fill="#009b69" stroke="#009b69"></path><path d="M494 168L512 96L392 95Z" fill="#003f87" stroke="#003f87"></path><path d="M107 210L84 311L207 267Z" fill="#004f8d" stroke="#004f8d"></path><path d="M263 477L374 521L382 378Z" fill="#003f87" stroke="#003f87"></path><path d="M112 412L175 468L236 378Z" fill="#005e8f" stroke="#005e8f"></path><path d="M263 477L267 600L374 521Z" fill="#003f87" stroke="#003f87"></path><path d="M84 311L112 412L236 378Z" fill="#00868d" stroke="#00868d"></path><path d="M474 0L377 0L392 95Z" fill="#004f8d" stroke="#004f8d"></path><path d="M392 95L377 0L275 112Z" fill="#80a629" stroke="#80a629"></path><path d="M229 117L62 139L107 210Z" fill="#004f8d" stroke="#004f8d"></path><path d="M508 404L561 424L536 337Z" fill="#00798e" stroke="#00798e"></path><path d="M536 337L593 162L494 168Z" fill="#003f87" stroke="#003f87"></path><path d="M508 495L561 424L508 404Z" fill="#003f87" stroke="#003f87"></path><path d="M377 0L263 0L275 112Z" fill="#005e8f" stroke="#005e8f"></path><path d="M631 335L593 162L536 337Z" fill="#003f87" stroke="#003f87"></path><path d="M374 521L508 495L382 378Z" fill="#004f8d" stroke="#004f8d"></path><path d="M589 0L474 0L512 96Z" fill="#00868d" stroke="#00868d"></path><path d="M512 96L474 0L392 95Z" fill="#004f8d" stroke="#004f8d"></path><path d="M675 378L631 335L561 424Z" fill="#0f2c7b" stroke="#0f2c7b"></path><path d="M561 424L631 335L536 337Z" fill="#80a629" stroke="#80a629"></path><path d="M160 0L62 139L229 117Z" fill="#009b69" stroke="#009b69"></path><path d="M0 178L0 329L84 311Z" fill="#003f87" stroke="#003f87"></path><path d="M676 63L594 107L593 162Z" fill="#0f2c7b" stroke="#0f2c7b"></path><path d="M593 162L594 107L512 96Z" fill="#005e8f" stroke="#005e8f"></path><path d="M263 0L160 0L229 117Z" fill="#80a629" stroke="#80a629"></path><path d="M508 495L608 461L561 424Z" fill="#00798e" stroke="#00798e"></path><path d="M112 412L89 493L175 468Z" fill="#003f87" stroke="#003f87"></path><path d="M192 600L267 600L263 477Z" fill="#00868d" stroke="#00868d"></path><path d="M0 406L89 493L112 412Z" fill="#00798e" stroke="#00798e"></path><path d="M0 406L112 412L84 311Z" fill="#0f2c7b" stroke="#0f2c7b"></path><path d="M192 600L263 477L175 468Z" fill="#00798e" stroke="#00798e"></path><path d="M374 521L411 600L508 495Z" fill="#4ea24c" stroke="#4ea24c"></path><path d="M508 495L581 600L608 461Z" fill="#005e8f" stroke="#005e8f"></path><path d="M267 600L411 600L374 521Z" fill="#4ea24c" stroke="#4ea24c"></path><path d="M0 178L84 311L107 210Z" fill="#009280" stroke="#009280"></path><path d="M675 378L678 324L631 335Z" fill="#00868d" stroke="#00868d"></path><path d="M631 335L686 228L593 162Z" fill="#005e8f" stroke="#005e8f"></path><path d="M0 79L0 178L62 139Z" fill="#4ea24c" stroke="#4ea24c"></path><path d="M62 139L0 178L107 210Z" fill="#00868d" stroke="#00868d"></path><path d="M678 324L686 228L631 335Z" fill="#0f2c7b" stroke="#0f2c7b"></path><path d="M608 461L675 378L561 424Z" fill="#005e8f" stroke="#005e8f"></path><path d="M678 324L770 262L686 228Z" fill="#80a629" stroke="#80a629"></path><path d="M127 600L192 600L175 468Z" fill="#00868d" stroke="#00868d"></path><path d="M0 329L0 406L84 311Z" fill="#00798e" stroke="#00798e"></path><path d="M89 493L127 600L175 468Z" fill="#004f8d" stroke="#004f8d"></path><path d="M676 63L589 0L594 107Z" fill="#00868d" stroke="#00868d"></path><path d="M594 107L589 0L512 96Z" fill="#009b69" stroke="#009b69"></path><path d="M160 0L81 0L62 139Z" fill="#4ea24c" stroke="#4ea24c"></path><path d="M411 600L518 600L508 495Z" fill="#009280" stroke="#009280"></path><path d="M608 461L720 521L675 378Z" fill="#0f2c7b" stroke="#0f2c7b"></path><path d="M81 0L0 79L62 139Z" fill="#80a629" stroke="#80a629"></path><path d="M0 600L127 600L89 493Z" fill="#009b69" stroke="#009b69"></path><path d="M686 228L676 63L593 162Z" fill="#009b69" stroke="#009b69"></path><path d="M518 600L581 600L508 495Z" fill="#00868d" stroke="#00868d"></path><path d="M0 406L0 513L89 493Z" fill="#004f8d" stroke="#004f8d"></path><path d="M81 0L0 0L0 79Z" fill="#0f2c7b" stroke="#0f2c7b"></path><path d="M814 375L770 262L678 324Z" fill="#009280" stroke="#009280"></path><path d="M686 228L769 84L676 63Z" fill="#4ea24c" stroke="#4ea24c"></path><path d="M814 375L678 324L675 378Z" fill="#004f8d" stroke="#004f8d"></path><path d="M690 600L720 521L608 461Z" fill="#003f87" stroke="#003f87"></path><path d="M900 297L798 224L770 262Z" fill="#003f87" stroke="#003f87"></path><path d="M770 262L798 224L686 228Z" fill="#009280" stroke="#009280"></path><path d="M769 84L717 0L676 63Z" fill="#005e8f" stroke="#005e8f"></path><path d="M676 63L717 0L589 0Z" fill="#0f2c7b" stroke="#0f2c7b"></path><path d="M798 224L769 84L686 228Z" fill="#80a629" stroke="#80a629"></path><path d="M0 513L0 600L89 493Z" fill="#005e8f" stroke="#005e8f"></path><path d="M581 600L690 600L608 461Z" fill="#0f2c7b" stroke="#0f2c7b"></path><path d="M720 521L814 375L675 378Z" fill="#004f8d" stroke="#004f8d"></path><path d="M823 484L814 375L720 521Z" fill="#4ea24c" stroke="#4ea24c"></path><path d="M774 600L823 484L720 521Z" fill="#003f87" stroke="#003f87"></path><path d="M690 600L774 600L720 521Z" fill="#80a629" stroke="#80a629"></path><path d="M900 126L828 0L769 84Z" fill="#80a629" stroke="#80a629"></path><path d="M769 84L828 0L717 0Z" fill="#00798e" stroke="#00798e"></path><path d="M900 126L769 84L798 224Z" fill="#004f8d" stroke="#004f8d"></path><path d="M900 297L770 262L814 375Z" fill="#009280" stroke="#009280"></path><path d="M900 396L900 297L814 375Z" fill="#00798e" stroke="#00798e"></path><path d="M900 297L900 220L798 224Z" fill="#00798e" stroke="#00798e"></path><path d="M823 484L900 396L814 375Z" fill="#006c8f" stroke="#006c8f"></path><path d="M900 475L900 396L823 484Z" fill="#00868d" stroke="#00868d"></path><path d="M900 220L900 126L798 224Z" fill="#004f8d" stroke="#004f8d"></path><path d="M900 600L900 475L823 484Z" fill="#004f8d" stroke="#004f8d"></path><path d="M900 126L900 0L828 0Z" fill="#0f2c7b" stroke="#0f2c7b"></path><path d="M774 600L900 600L823 484Z" fill="#009b69" stroke="#009b69"></path></g></svg>